<mxfile host="Electron" modified="2024-07-20T12:52:46.522Z" agent="Mozilla/5.0 (Windows NT 10.0; Win64; x64) AppleWebKit/537.36 (KHTML, like Gecko) draw.io/24.6.4 Chrome/124.0.6367.207 Electron/30.0.6 Safari/537.36" etag="fYPVEluVPwFJ-OQ2-DwY" version="24.6.4" type="device">
  <diagram name="Page-1" id="K0OfbHMm-RJSskMwUVTD">
    <mxGraphModel dx="955" dy="565" grid="1" gridSize="10" guides="1" tooltips="1" connect="1" arrows="1" fold="1" page="1" pageScale="1" pageWidth="850" pageHeight="1100" math="0" shadow="0">
      <root>
        <mxCell id="0" />
        <mxCell id="1" parent="0" />
        <mxCell id="cyp2w61EUxbiJnloN8g3-1" value="" style="shape=table;startSize=0;container=1;collapsible=0;childLayout=tableLayout;" vertex="1" parent="1">
          <mxGeometry x="80" y="120" width="180" height="40" as="geometry" />
        </mxCell>
        <mxCell id="cyp2w61EUxbiJnloN8g3-2" value="" style="shape=tableRow;horizontal=0;startSize=0;swimlaneHead=0;swimlaneBody=0;strokeColor=inherit;top=0;left=0;bottom=0;right=0;collapsible=0;dropTarget=0;fillColor=none;points=[[0,0.5],[1,0.5]];portConstraint=eastwest;" vertex="1" parent="cyp2w61EUxbiJnloN8g3-1">
          <mxGeometry width="180" height="40" as="geometry" />
        </mxCell>
        <mxCell id="cyp2w61EUxbiJnloN8g3-3" value="&lt;u&gt;Number&lt;/u&gt;" style="shape=partialRectangle;html=1;whiteSpace=wrap;connectable=0;strokeColor=inherit;overflow=hidden;fillColor=none;top=0;left=0;bottom=0;right=0;pointerEvents=1;" vertex="1" parent="cyp2w61EUxbiJnloN8g3-2">
          <mxGeometry width="60" height="40" as="geometry">
            <mxRectangle width="60" height="40" as="alternateBounds" />
          </mxGeometry>
        </mxCell>
        <mxCell id="cyp2w61EUxbiJnloN8g3-4" value="Location" style="shape=partialRectangle;html=1;whiteSpace=wrap;connectable=0;strokeColor=inherit;overflow=hidden;fillColor=none;top=0;left=0;bottom=0;right=0;pointerEvents=1;" vertex="1" parent="cyp2w61EUxbiJnloN8g3-2">
          <mxGeometry x="60" width="60" height="40" as="geometry">
            <mxRectangle width="60" height="40" as="alternateBounds" />
          </mxGeometry>
        </mxCell>
        <mxCell id="cyp2w61EUxbiJnloN8g3-24" value="emp_Id" style="shape=partialRectangle;html=1;whiteSpace=wrap;connectable=0;strokeColor=inherit;overflow=hidden;fillColor=none;top=0;left=0;bottom=0;right=0;pointerEvents=1;" vertex="1" parent="cyp2w61EUxbiJnloN8g3-2">
          <mxGeometry x="120" width="60" height="40" as="geometry">
            <mxRectangle width="60" height="40" as="alternateBounds" />
          </mxGeometry>
        </mxCell>
        <mxCell id="cyp2w61EUxbiJnloN8g3-5" value="Sales-office" style="text;html=1;align=center;verticalAlign=middle;resizable=0;points=[];autosize=1;strokeColor=none;fillColor=none;" vertex="1" parent="1">
          <mxGeometry x="70" y="88" width="90" height="30" as="geometry" />
        </mxCell>
        <mxCell id="cyp2w61EUxbiJnloN8g3-6" value="" style="shape=table;startSize=0;container=1;collapsible=0;childLayout=tableLayout;" vertex="1" parent="1">
          <mxGeometry x="80" y="240" width="190" height="40" as="geometry" />
        </mxCell>
        <mxCell id="cyp2w61EUxbiJnloN8g3-7" value="" style="shape=tableRow;horizontal=0;startSize=0;swimlaneHead=0;swimlaneBody=0;strokeColor=inherit;top=0;left=0;bottom=0;right=0;collapsible=0;dropTarget=0;fillColor=none;points=[[0,0.5],[1,0.5]];portConstraint=eastwest;" vertex="1" parent="cyp2w61EUxbiJnloN8g3-6">
          <mxGeometry width="190" height="40" as="geometry" />
        </mxCell>
        <mxCell id="cyp2w61EUxbiJnloN8g3-8" value="&lt;u&gt;ID&lt;/u&gt;" style="shape=partialRectangle;html=1;whiteSpace=wrap;connectable=0;strokeColor=inherit;overflow=hidden;fillColor=none;top=0;left=0;bottom=0;right=0;pointerEvents=1;" vertex="1" parent="cyp2w61EUxbiJnloN8g3-7">
          <mxGeometry width="60" height="40" as="geometry">
            <mxRectangle width="60" height="40" as="alternateBounds" />
          </mxGeometry>
        </mxCell>
        <mxCell id="cyp2w61EUxbiJnloN8g3-9" value="Name" style="shape=partialRectangle;html=1;whiteSpace=wrap;connectable=0;strokeColor=inherit;overflow=hidden;fillColor=none;top=0;left=0;bottom=0;right=0;pointerEvents=1;" vertex="1" parent="cyp2w61EUxbiJnloN8g3-7">
          <mxGeometry x="60" width="60" height="40" as="geometry">
            <mxRectangle width="60" height="40" as="alternateBounds" />
          </mxGeometry>
        </mxCell>
        <mxCell id="cyp2w61EUxbiJnloN8g3-27" value="sales_Num" style="shape=partialRectangle;html=1;whiteSpace=wrap;connectable=0;strokeColor=inherit;overflow=hidden;fillColor=none;top=0;left=0;bottom=0;right=0;pointerEvents=1;" vertex="1" parent="cyp2w61EUxbiJnloN8g3-7">
          <mxGeometry x="120" width="70" height="40" as="geometry">
            <mxRectangle width="70" height="40" as="alternateBounds" />
          </mxGeometry>
        </mxCell>
        <mxCell id="cyp2w61EUxbiJnloN8g3-10" value="Employee" style="text;html=1;align=center;verticalAlign=middle;resizable=0;points=[];autosize=1;strokeColor=none;fillColor=none;" vertex="1" parent="1">
          <mxGeometry x="50" y="210" width="80" height="30" as="geometry" />
        </mxCell>
        <mxCell id="cyp2w61EUxbiJnloN8g3-11" value="" style="shape=table;startSize=0;container=1;collapsible=0;childLayout=tableLayout;" vertex="1" parent="1">
          <mxGeometry x="80" y="360" width="120" height="40" as="geometry" />
        </mxCell>
        <mxCell id="cyp2w61EUxbiJnloN8g3-12" value="" style="shape=tableRow;horizontal=0;startSize=0;swimlaneHead=0;swimlaneBody=0;strokeColor=inherit;top=0;left=0;bottom=0;right=0;collapsible=0;dropTarget=0;fillColor=none;points=[[0,0.5],[1,0.5]];portConstraint=eastwest;" vertex="1" parent="cyp2w61EUxbiJnloN8g3-11">
          <mxGeometry width="120" height="40" as="geometry" />
        </mxCell>
        <mxCell id="cyp2w61EUxbiJnloN8g3-13" value="&lt;u&gt;ID&lt;/u&gt;" style="shape=partialRectangle;html=1;whiteSpace=wrap;connectable=0;strokeColor=inherit;overflow=hidden;fillColor=none;top=0;left=0;bottom=0;right=0;pointerEvents=1;" vertex="1" parent="cyp2w61EUxbiJnloN8g3-12">
          <mxGeometry width="60" height="40" as="geometry">
            <mxRectangle width="60" height="40" as="alternateBounds" />
          </mxGeometry>
        </mxCell>
        <mxCell id="cyp2w61EUxbiJnloN8g3-14" value="Name" style="shape=partialRectangle;html=1;whiteSpace=wrap;connectable=0;strokeColor=inherit;overflow=hidden;fillColor=none;top=0;left=0;bottom=0;right=0;pointerEvents=1;" vertex="1" parent="cyp2w61EUxbiJnloN8g3-12">
          <mxGeometry x="60" width="60" height="40" as="geometry">
            <mxRectangle width="60" height="40" as="alternateBounds" />
          </mxGeometry>
        </mxCell>
        <mxCell id="cyp2w61EUxbiJnloN8g3-15" value="Owner" style="text;html=1;align=center;verticalAlign=middle;resizable=0;points=[];autosize=1;strokeColor=none;fillColor=none;" vertex="1" parent="1">
          <mxGeometry x="70" y="328" width="60" height="30" as="geometry" />
        </mxCell>
        <mxCell id="cyp2w61EUxbiJnloN8g3-16" value="" style="shape=table;startSize=0;container=1;collapsible=0;childLayout=tableLayout;" vertex="1" parent="1">
          <mxGeometry x="80" y="480" width="370" height="40" as="geometry" />
        </mxCell>
        <mxCell id="cyp2w61EUxbiJnloN8g3-17" value="" style="shape=tableRow;horizontal=0;startSize=0;swimlaneHead=0;swimlaneBody=0;strokeColor=inherit;top=0;left=0;bottom=0;right=0;collapsible=0;dropTarget=0;fillColor=none;points=[[0,0.5],[1,0.5]];portConstraint=eastwest;" vertex="1" parent="cyp2w61EUxbiJnloN8g3-16">
          <mxGeometry width="370" height="40" as="geometry" />
        </mxCell>
        <mxCell id="cyp2w61EUxbiJnloN8g3-18" value="&lt;u&gt;ID&lt;/u&gt;" style="shape=partialRectangle;html=1;whiteSpace=wrap;connectable=0;strokeColor=inherit;overflow=hidden;fillColor=none;top=0;left=0;bottom=0;right=0;pointerEvents=1;" vertex="1" parent="cyp2w61EUxbiJnloN8g3-17">
          <mxGeometry width="60" height="40" as="geometry">
            <mxRectangle width="60" height="40" as="alternateBounds" />
          </mxGeometry>
        </mxCell>
        <mxCell id="cyp2w61EUxbiJnloN8g3-19" value="Address" style="shape=partialRectangle;html=1;whiteSpace=wrap;connectable=0;strokeColor=inherit;overflow=hidden;fillColor=none;top=0;left=0;bottom=0;right=0;pointerEvents=1;" vertex="1" parent="cyp2w61EUxbiJnloN8g3-17">
          <mxGeometry x="60" width="60" height="40" as="geometry">
            <mxRectangle width="60" height="40" as="alternateBounds" />
          </mxGeometry>
        </mxCell>
        <mxCell id="cyp2w61EUxbiJnloN8g3-23" value="City" style="shape=partialRectangle;html=1;whiteSpace=wrap;connectable=0;strokeColor=inherit;overflow=hidden;fillColor=none;top=0;left=0;bottom=0;right=0;pointerEvents=1;" vertex="1" parent="cyp2w61EUxbiJnloN8g3-17">
          <mxGeometry x="120" width="60" height="40" as="geometry">
            <mxRectangle width="60" height="40" as="alternateBounds" />
          </mxGeometry>
        </mxCell>
        <mxCell id="cyp2w61EUxbiJnloN8g3-22" value="state" style="shape=partialRectangle;html=1;whiteSpace=wrap;connectable=0;strokeColor=inherit;overflow=hidden;fillColor=none;top=0;left=0;bottom=0;right=0;pointerEvents=1;" vertex="1" parent="cyp2w61EUxbiJnloN8g3-17">
          <mxGeometry x="180" width="60" height="40" as="geometry">
            <mxRectangle width="60" height="40" as="alternateBounds" />
          </mxGeometry>
        </mxCell>
        <mxCell id="cyp2w61EUxbiJnloN8g3-21" value="code" style="shape=partialRectangle;html=1;whiteSpace=wrap;connectable=0;strokeColor=inherit;overflow=hidden;fillColor=none;top=0;left=0;bottom=0;right=0;pointerEvents=1;" vertex="1" parent="cyp2w61EUxbiJnloN8g3-17">
          <mxGeometry x="240" width="60" height="40" as="geometry">
            <mxRectangle width="60" height="40" as="alternateBounds" />
          </mxGeometry>
        </mxCell>
        <mxCell id="cyp2w61EUxbiJnloN8g3-30" value="sales_num" style="shape=partialRectangle;html=1;whiteSpace=wrap;connectable=0;strokeColor=inherit;overflow=hidden;fillColor=none;top=0;left=0;bottom=0;right=0;pointerEvents=1;" vertex="1" parent="cyp2w61EUxbiJnloN8g3-17">
          <mxGeometry x="300" width="70" height="40" as="geometry">
            <mxRectangle width="70" height="40" as="alternateBounds" />
          </mxGeometry>
        </mxCell>
        <mxCell id="cyp2w61EUxbiJnloN8g3-20" value="Property" style="text;html=1;align=center;verticalAlign=middle;resizable=0;points=[];autosize=1;strokeColor=none;fillColor=none;" vertex="1" parent="1">
          <mxGeometry x="65" y="448" width="70" height="30" as="geometry" />
        </mxCell>
        <mxCell id="cyp2w61EUxbiJnloN8g3-25" value="" style="endArrow=none;dashed=1;html=1;rounded=0;" edge="1" parent="1">
          <mxGeometry width="50" height="50" relative="1" as="geometry">
            <mxPoint x="205" y="150" as="sourcePoint" />
            <mxPoint x="255" y="150" as="targetPoint" />
          </mxGeometry>
        </mxCell>
        <mxCell id="cyp2w61EUxbiJnloN8g3-26" value="" style="endArrow=classic;html=1;rounded=0;entryX=0.27;entryY=-0.025;entryDx=0;entryDy=0;entryPerimeter=0;" edge="1" parent="1" target="cyp2w61EUxbiJnloN8g3-7">
          <mxGeometry width="50" height="50" relative="1" as="geometry">
            <mxPoint x="230" y="160" as="sourcePoint" />
            <mxPoint x="460" y="210" as="targetPoint" />
            <Array as="points">
              <mxPoint x="230" y="200" />
              <mxPoint x="130" y="200" />
            </Array>
          </mxGeometry>
        </mxCell>
        <mxCell id="cyp2w61EUxbiJnloN8g3-28" value="" style="endArrow=none;dashed=1;html=1;rounded=0;" edge="1" parent="1">
          <mxGeometry width="50" height="50" relative="1" as="geometry">
            <mxPoint x="220" y="270" as="sourcePoint" />
            <mxPoint x="260" y="270" as="targetPoint" />
          </mxGeometry>
        </mxCell>
        <mxCell id="cyp2w61EUxbiJnloN8g3-29" value="" style="endArrow=classic;html=1;rounded=0;entryX=0.008;entryY=0.717;entryDx=0;entryDy=0;entryPerimeter=0;" edge="1" parent="1" target="cyp2w61EUxbiJnloN8g3-2">
          <mxGeometry width="50" height="50" relative="1" as="geometry">
            <mxPoint x="232" y="280" as="sourcePoint" />
            <mxPoint x="310" y="290" as="targetPoint" />
            <Array as="points">
              <mxPoint x="232" y="320" />
              <mxPoint x="50" y="320" />
              <mxPoint x="50" y="150" />
            </Array>
          </mxGeometry>
        </mxCell>
        <mxCell id="cyp2w61EUxbiJnloN8g3-31" value="" style="endArrow=none;dashed=1;html=1;rounded=0;" edge="1" parent="1">
          <mxGeometry width="50" height="50" relative="1" as="geometry">
            <mxPoint x="390" y="510" as="sourcePoint" />
            <mxPoint x="440" y="510" as="targetPoint" />
          </mxGeometry>
        </mxCell>
        <mxCell id="cyp2w61EUxbiJnloN8g3-32" value="" style="endArrow=classic;html=1;rounded=0;exitX=0.999;exitY=0.728;exitDx=0;exitDy=0;exitPerimeter=0;entryX=1.018;entryY=0.322;entryDx=0;entryDy=0;entryPerimeter=0;" edge="1" parent="1" source="cyp2w61EUxbiJnloN8g3-17" target="cyp2w61EUxbiJnloN8g3-7">
          <mxGeometry width="50" height="50" relative="1" as="geometry">
            <mxPoint x="480" y="520" as="sourcePoint" />
            <mxPoint x="340" y="260" as="targetPoint" />
            <Array as="points">
              <mxPoint x="480" y="510" />
              <mxPoint x="480" y="250" />
            </Array>
          </mxGeometry>
        </mxCell>
        <mxCell id="cyp2w61EUxbiJnloN8g3-33" value="" style="shape=table;startSize=0;container=1;collapsible=0;childLayout=tableLayout;" vertex="1" parent="1">
          <mxGeometry x="80" y="570" width="180" height="60" as="geometry" />
        </mxCell>
        <mxCell id="cyp2w61EUxbiJnloN8g3-34" value="" style="shape=tableRow;horizontal=0;startSize=0;swimlaneHead=0;swimlaneBody=0;strokeColor=inherit;top=0;left=0;bottom=0;right=0;collapsible=0;dropTarget=0;fillColor=none;points=[[0,0.5],[1,0.5]];portConstraint=eastwest;" vertex="1" parent="cyp2w61EUxbiJnloN8g3-33">
          <mxGeometry width="180" height="60" as="geometry" />
        </mxCell>
        <mxCell id="cyp2w61EUxbiJnloN8g3-35" value="own_Id" style="shape=partialRectangle;html=1;whiteSpace=wrap;connectable=0;strokeColor=inherit;overflow=hidden;fillColor=none;top=0;left=0;bottom=0;right=0;pointerEvents=1;" vertex="1" parent="cyp2w61EUxbiJnloN8g3-34">
          <mxGeometry width="60" height="60" as="geometry">
            <mxRectangle width="60" height="60" as="alternateBounds" />
          </mxGeometry>
        </mxCell>
        <mxCell id="cyp2w61EUxbiJnloN8g3-36" value="prob_Id" style="shape=partialRectangle;html=1;whiteSpace=wrap;connectable=0;strokeColor=inherit;overflow=hidden;fillColor=none;top=0;left=0;bottom=0;right=0;pointerEvents=1;" vertex="1" parent="cyp2w61EUxbiJnloN8g3-34">
          <mxGeometry x="60" width="60" height="60" as="geometry">
            <mxRectangle width="60" height="60" as="alternateBounds" />
          </mxGeometry>
        </mxCell>
        <mxCell id="cyp2w61EUxbiJnloN8g3-43" value="precent" style="shape=partialRectangle;html=1;whiteSpace=wrap;connectable=0;strokeColor=inherit;overflow=hidden;fillColor=none;top=0;left=0;bottom=0;right=0;pointerEvents=1;" vertex="1" parent="cyp2w61EUxbiJnloN8g3-34">
          <mxGeometry x="120" width="60" height="60" as="geometry">
            <mxRectangle width="60" height="60" as="alternateBounds" />
          </mxGeometry>
        </mxCell>
        <mxCell id="cyp2w61EUxbiJnloN8g3-37" value="owner_property&amp;nbsp;" style="text;html=1;align=center;verticalAlign=middle;resizable=0;points=[];autosize=1;strokeColor=none;fillColor=none;" vertex="1" parent="1">
          <mxGeometry x="65" y="540" width="110" height="30" as="geometry" />
        </mxCell>
        <mxCell id="cyp2w61EUxbiJnloN8g3-38" value="" style="endArrow=none;dashed=1;html=1;rounded=0;" edge="1" parent="1">
          <mxGeometry width="50" height="50" relative="1" as="geometry">
            <mxPoint x="90" y="610" as="sourcePoint" />
            <mxPoint x="130" y="610" as="targetPoint" />
          </mxGeometry>
        </mxCell>
        <mxCell id="cyp2w61EUxbiJnloN8g3-39" value="" style="endArrow=none;dashed=1;html=1;rounded=0;" edge="1" parent="1">
          <mxGeometry width="50" height="50" relative="1" as="geometry">
            <mxPoint x="145" y="610" as="sourcePoint" />
            <mxPoint x="195" y="610" as="targetPoint" />
          </mxGeometry>
        </mxCell>
        <mxCell id="cyp2w61EUxbiJnloN8g3-40" value="" style="endArrow=none;html=1;rounded=0;" edge="1" parent="1">
          <mxGeometry width="50" height="50" relative="1" as="geometry">
            <mxPoint x="105" y="620" as="sourcePoint" />
            <mxPoint x="175" y="620" as="targetPoint" />
          </mxGeometry>
        </mxCell>
        <mxCell id="cyp2w61EUxbiJnloN8g3-41" value="" style="endArrow=classic;html=1;rounded=0;exitX=-0.012;exitY=0.624;exitDx=0;exitDy=0;exitPerimeter=0;entryX=0.007;entryY=0.299;entryDx=0;entryDy=0;entryPerimeter=0;" edge="1" parent="1" source="cyp2w61EUxbiJnloN8g3-34" target="cyp2w61EUxbiJnloN8g3-12">
          <mxGeometry width="50" height="50" relative="1" as="geometry">
            <mxPoint y="610" as="sourcePoint" />
            <mxPoint x="50" y="560" as="targetPoint" />
            <Array as="points">
              <mxPoint x="40" y="610" />
              <mxPoint x="40" y="372" />
            </Array>
          </mxGeometry>
        </mxCell>
        <mxCell id="cyp2w61EUxbiJnloN8g3-42" value="" style="endArrow=classic;html=1;rounded=0;entryX=-0.004;entryY=0.364;entryDx=0;entryDy=0;entryPerimeter=0;" edge="1" parent="1" source="cyp2w61EUxbiJnloN8g3-34" target="cyp2w61EUxbiJnloN8g3-17">
          <mxGeometry width="50" height="50" relative="1" as="geometry">
            <mxPoint x="220" y="660" as="sourcePoint" />
            <mxPoint x="-10" y="630" as="targetPoint" />
            <Array as="points">
              <mxPoint x="176" y="640" />
              <mxPoint x="10" y="640" />
              <mxPoint x="10" y="495" />
            </Array>
          </mxGeometry>
        </mxCell>
      </root>
    </mxGraphModel>
  </diagram>
</mxfile>
